<svg width="17" height="16" viewBox="0 0 17 16" fill="none" xmlns="http://www.w3.org/2000/svg">
<path d="M8.40039 4.29333V6.51334" stroke="#414F62" stroke-miterlimit="10" stroke-linecap="round"/>
<path d="M8.41366 1.33337C5.96032 1.33337 3.97366 3.32004 3.97366 5.77337V7.17337C3.97366 7.62671 3.78699 8.30671 3.55366 8.69337L2.70699 10.1067C2.18699 10.98 2.54699 11.9534 3.50699 12.2734C6.69366 13.3334 10.1403 13.3334 13.327 12.2734C14.227 11.9734 14.6137 10.92 14.127 10.1067L13.2803 8.69337C13.047 8.30671 12.8603 7.62004 12.8603 7.17337V5.77337C12.8537 3.33337 10.8537 1.33337 8.41366 1.33337Z" stroke="#414F62" stroke-miterlimit="10" stroke-linecap="round"/>
<path d="M10.6197 12.5466C10.6197 13.7666 9.61969 14.7666 8.39969 14.7666C7.79302 14.7666 7.23302 14.5133 6.83302 14.1133C6.43302 13.7133 6.17969 13.1533 6.17969 12.5466" stroke="#414F62" stroke-miterlimit="10"/>
</svg>
